{"title":"Supernova (2000).BRrip.XviD - Italian English.Ac3 - 5.1 - Sub It","uid":11736093,"size":1571235228,"categoryP":"video","categoryS":"movies","magnet":"?xt=urn:btih:b765d5f240e5569174da46fd41dd52def347010f&amp;dn=Supernova+%282000%29.BRrip.XviD+-+Italian+English.Ac3+-+5.1+-+Sub+It&amp;tr=udp%3A%2F%2Ftracker.openbittorrent.com%3A80&amp;tr=udp%3A%2F%2Fopen.demonii.com%3A1337&amp;tr=udp%3A%2F%2Ftracker.coppersurfer.tk%3A6969&amp;tr=udp%3A%2F%2Fexodus.desync.com%3A6969","seeders":10,"leechers":1,"uploader":"robbyrs4","files":4,"time":1425574000,"description":"Supernova (2000).BRrip.XviD - Italian English.Ac3 - 5.1 - Sub Ita Eng.MIRCrew\n\n\n[center]\n\n[color=red][b][img]http://s19.postimg.org/rr1b4yhxv/banner_mircrew_2015.png[/img]\n\n[u]NO FOUND ONLY ORIGINAL RELEASE[/u]\n\nSupernova (2000)\n\n[img]http://s19.postimg.org/8dbn0v2hf/image.jpg[/img]\n\n\n[URL=http://www.imdb.com/title/tt0134983/][IMG]http://www.userlogos.org/files/logos/Sucka/imdb_new.png[/IMG][/URL]  \n\n[img]http://s19.postimg.org/vz5tzn42b/1_scheda.png[/img]\n\nTitolo originale \tSupernova\nPaese di produzione \tUSA\nAnno \t2000\nDurata \t87 min\nGenere \tfantascienza\nRegia \tWalter Hill\nSoggetto \tWilliam Malone, Daniel Chuba\nSceneggiatura \tDavid C. Wilson\nProduttore \tDaniel Chuba, Jamie Dixon, James Robert Johnston, Ash R. Shah, Ralph S. Singleton\nFotografia \tLloyd Ahern II\nMontaggio \tMichael Schweiter, Melissa Kent\nMusiche \tDavid Williams\n\n[img]http://s19.postimg.org/q8fnlww2b/1_cast.png[/img]\n\n\n    James Spader: Nick Vanzant\n    Angela Bassett: Dr. Kaela Evers\n    Robert Forster: A.J. Marley\n    Lou Diamond Phillips: Yerzy Penalosa\n    Peter Facinelli: Troy Larsson / Karl Larsson\n    Robin Tunney: Danika Lund\n    Wilson Cruz: Benj Sotomejor\n\n\n[img]http://s19.postimg.org/okgi79i6r/1_trama.png[/img]. \n\nLa Nightingale 229, un'astronave di tecnologia umana avanzatissima del ventunesimo secolo viene allertata da una chiamata di soccorso a oltre tremila anni luce di distanza: l'equipaggio, composto dal capitano e pilota AJ Markley (Robert Forster), il suo copilota Nick Vanzant (James Spader), l'ufficiale medico Keela Evers (Angela Bassett), il tecnico Yerzy Penalosa (Lou Diamond Phillips), il paramedico Danika Lund (Robin Tunney) ed il tecnico informatico Benjamin Sotomejor (Wilson Cruz) si preparano per la missione, effettuando un salto dimensionale nello spazio................\n\n[img]http://s19.postimg.org/fzn6g380j/1_story.png[/img]\n\nSupernova chronicles the search and rescue patrol of a medical ship in deep space in the early 22nd century and its six-member crew which includes a Captain and Pilot, a co-pilot, a medical.........\n &lt;a href=&quot;\nhttp://s19.postimg.org/b8oq7q6hf/vlcsnap_2015_03_05_16h31m32s132.png[/img]&quot; rel=&quot;nofollow&quot; target=&quot;_NEW&quot;&gt;\nhttp://s19.postimg.org/b8oq7q6hf/vlcsnap_2015_03_05_16h31m32s132.png[/img]&lt;/a&gt;\n &lt;a href=&quot;\nhttp://s19.postimg.org/v5ungopcj/vlcsnap_2015_03_05_16h31m53s5.png[/img]&quot; rel=&quot;nofollow&quot; target=&quot;_NEW&quot;&gt;\nhttp://s19.postimg.org/v5ungopcj/vlcsnap_2015_03_05_16h31m53s5.png[/img]&lt;/a&gt;\n &lt;a href=&quot;\nhttp://s19.postimg.org/e6qaf63ir/vlcsnap_2015_03_05_16h34m20s12.png[/img]&quot; rel=&quot;nofollow&quot; target=&quot;_NEW&quot;&gt;\nhttp://s19.postimg.org/e6qaf63ir/vlcsnap_2015_03_05_16h34m20s12.png[/img]&lt;/a&gt;\n\n[IMG]http://img153.imageshack.us/img153/3158/restateinseedblood.gif[/img]\n\n\n[img]http://imgur.com/lvhU6.gif[/img]\n\n\n[img]http://s19.postimg.org/a2jaz9qvn/1_dati.png[/img]\n\n\n[spoiler]\nGeneral\nComplete name                            : Supernova (2000).ita.eng.sub.ita.eng.MIRCrewSupernova (2000).ita.eng.sub.ita.eng.MIRCrew.avi\nFormat                                   : AVI\nFormat/Info                              : Audio Video Interleave\nFile size                                : 1.46 GiB\nDuration                                 : 1h 26mn\nOverall bit rate                         : 2 413 Kbps\nMovie name                               : MIRCrew by robbyrs\nWriting application                      : VirtualDubMod 1.5.10.2 (build 2540/release)\nWriting library                          : VirtualDubMod build 2540/release\n\nVideo\nID                                       : 0\nFormat                                   : MPEG-4 Visual\nFormat profile                           : Simple@L3\nFormat settings, BVOP                    : No\nFormat settings, QPel                    : No\nFormat settings, GMC                     : No warppoints\nFormat settings, Matrix                  : Default (H.263)\nCodec ID                                 : XVID\nCodec ID/Hint                            : XviD\nDuration                                 : 1h 26mn\nBit rate                                 : 1 503 Kbps\nWidth                                    : 720 pixels\nHeight                                   : 304 pixels\nDisplay aspect ratio                     : 2.35:1\nFrame rate                               : 25.000 fps\nColor space                              : YUV\nChroma subsampling                       : 4:2:0\nBit depth                                : 8 bits\nScan type                                : Progressive\nCompression mode                         : Lossy\nBits/(Pixel*Frame)                       : 0.275\nStream size                              : 933 MiB (62%)\nWriting library                          : XviD 64\n\nAudio #1\nID                                       : 1\nFormat                                   : AC-3\nFormat/Info                              : Audio Coding 3\nMode extension                           : CM (complete main)\nCodec ID                                 : 2000\nDuration                                 : 1h 26mn\nBit rate mode                            : Constant\nBit rate                                 : 448 Kbps\nChannel(s)                               : 6 channels\nChannel positions                        : Front: L C R, Side: L R, LFE\nSampling rate                            : 48.0 KHz\nBit depth                                : 16 bits\nCompression mode                         : Lossy\nStream size                              : 278 MiB (19%)\nAlignment                                : Split accross interleaves\nInterleave, duration                     : 40 ms (1.00 video frame)\nInterleave, preload duration             : 500 ms\n\nAudio #2\nID                                       : 2\nFormat                                   : AC-3\nFormat/Info                              : Audio Coding 3\nMode extension                           : CM (complete main)\nCodec ID                                 : 2000\nDuration                                 : 1h 26mn\nBit rate mode                            : Constant\nBit rate                                 : 448 Kbps\nChannel(s)                               : 6 channels\nChannel positions                        : Front: L C R, Side: L R, LFE\nSampling rate                            : 48.0 KHz\nBit depth                                : 16 bits\nCompression mode                         : Lossy\nStream size                              : 278 MiB (19%)\nAlignment                                : Split accross interleaves\nInterleave, duration                     : 40 ms (1.00 video frame)\nInterleave, preload duration             : 500 ms\n\n\n\n\n[/spoiler]\n\n[/color][/b][/center]\n\n&amp;&amp;e4t67uk","torrent":{"xt":"urn:btih:b765d5f240e5569174da46fd41dd52def347010f","amp;dn":"Supernova+%282000%29.BRrip.XviD+-+Italian+English.Ac3+-+5.1+-+Sub+It","amp;tr":["udp%3A%2F%2Ftracker.openbittorrent.com%3A80","udp%3A%2F%2Fopen.demonii.com%3A1337","udp%3A%2F%2Ftracker.coppersurfer.tk%3A6969","udp%3A%2F%2Fexodus.desync.com%3A6969"],"infoHash":"b765d5f240e5569174da46fd41dd52def347010f","infoHashBuffer":{"type":"Buffer","data":[183,101,213,242,64,229,86,145,116,218,70,253,65,221,82,222,243,71,1,15]},"announce":[],"urlList":[]}}